<svg xmlns="http://www.w3.org/2000/svg" version="1.1" xmlns:xlink="http://www.w3.org/1999/xlink" width="1000" height="1000"><style>
    #light-icon {
      display: inline;
    }
    #dark-icon {
      display: none;
    }

    @media (prefers-color-scheme: dark) {
      #light-icon {
        display: none;
      }
      #dark-icon {
        display: inline;
      }
    }
  </style><g id="light-icon"><svg xmlns="http://www.w3.org/2000/svg" version="1.1" xmlns:xlink="http://www.w3.org/1999/xlink" width="1000" height="1000"><g><g transform="matrix(2.9239766081871346,0,0,2.9239766081871346,156.4327485380117,0)"><svg xmlns="http://www.w3.org/2000/svg" version="1.1" xmlns:xlink="http://www.w3.org/1999/xlink" width="235" height="342"><svg width="235" height="342" viewBox="0 0 235 342" fill="none" xmlns="http://www.w3.org/2000/svg">
<g clip-path="url(#clip0_1509_1533)">
<path d="M106.821 200.769H121.776C160.712 200.769 192.276 232.351 192.276 271.307C192.276 310.262 160.712 341.844 121.776 341.844H106.821V200.769Z" fill="#5C3C3B"></path>
<path d="M128.182 128.25C187.175 128.25 235 176.1 235 235.125C235 294.15 187.175 342 128.182 342H106.817V331.312H128.182C181.276 331.312 224.317 288.249 224.317 235.125C224.317 182.002 181.276 138.938 128.182 138.938H106.817V128.25H128.182Z" fill="#5C3C3B"></path>
<path d="M129.678 128.259C187.972 128.998 235 176.561 235 235.125L234.992 236.506C234.259 294.435 187.513 341.257 129.678 341.991L128.3 342H106.821V321.231H128.3L129.411 321.224C176.376 320.628 214.265 282.309 214.265 235.125C214.265 187.57 175.777 149.019 128.3 149.019H106.821V128.25H128.3L129.678 128.259Z" fill="#5C3C3B"></path>
<path d="M0 0H64.0909C123.085 0 170.909 47.8497 170.909 106.875C170.909 165.9 123.085 213.75 64.0909 213.75H0V0Z" fill="#366C6C"></path>
<path d="M96.1362 128.25H10.6816V342H96.1362V128.25Z" fill="#A36A53"></path>
<path d="M95.8833 87.231C118.3 87.231 136.473 105.433 136.473 127.887C136.473 150.34 118.3 168.542 95.8833 168.542C73.4664 168.542 55.2939 150.34 55.2939 127.887C55.2941 105.433 73.4664 87.231 95.8833 87.231ZM95.8833 100.435C80.7472 100.435 68.4771 112.726 68.4769 127.887C68.4769 143.048 80.7472 155.338 95.8833 155.338C111.019 155.338 123.29 143.048 123.29 127.887C123.29 112.726 111.019 100.435 95.8833 100.435Z" fill="#F9D423"></path>
</g>
<defs>
<clipPath id="clip0_1509_1533">
<rect width="235" height="342" fill="white"></rect>
</clipPath>
</defs>
</svg></svg></g></g></svg></g><g id="dark-icon"><svg xmlns="http://www.w3.org/2000/svg" version="1.1" xmlns:xlink="http://www.w3.org/1999/xlink" width="1000" height="1000"><g><g transform="matrix(2.9239766081871346,0,0,2.9239766081871346,156.4327485380117,0)"><svg xmlns="http://www.w3.org/2000/svg" version="1.1" xmlns:xlink="http://www.w3.org/1999/xlink" width="235" height="342"><svg width="235" height="342" viewBox="0 0 235 342" fill="none" xmlns="http://www.w3.org/2000/svg">
<g clip-path="url(#clip0_1529_1793)">
<path d="M106.821 200.77H121.776C160.712 200.77 192.276 232.351 192.276 271.307C192.276 310.263 160.712 341.845 121.776 341.845H106.821V200.77Z" fill="#5C3C3B"></path>
<path d="M128.182 128.25C187.175 128.25 235 176.1 235 235.125C235 294.15 187.175 342 128.182 342H106.818V331.312H128.182C181.276 331.312 224.318 288.249 224.318 235.125C224.318 182.002 181.276 138.938 128.182 138.938H106.818V128.25H128.182Z" fill="#F5F5EC"></path>
<path d="M129.678 128.259C187.972 128.998 235 176.561 235 235.125L234.992 236.506C234.259 294.435 187.513 341.257 129.678 341.991L128.3 342H106.821V321.231H128.3L129.411 321.224C176.376 320.628 214.265 282.309 214.265 235.125C214.265 187.57 175.777 149.019 128.3 149.019H106.821V128.25H128.3L129.678 128.259Z" fill="#F5F5EC"></path>
<path d="M0 0H64.0909C123.085 0 170.909 47.8497 170.909 106.875C170.909 165.9 123.085 213.75 64.0909 213.75H0V0Z" fill="#366C6C"></path>
<path d="M96.1362 128.25H10.6816V342H96.1362V128.25Z" fill="#A36A53"></path>
<path d="M95.8833 87.2305C118.3 87.2305 136.473 105.433 136.473 127.886C136.473 150.34 118.3 168.542 95.8833 168.542C73.4664 168.542 55.2939 150.339 55.2939 127.886C55.2941 105.433 73.4664 87.2305 95.8833 87.2305ZM95.8833 100.435C80.7472 100.435 68.4771 112.725 68.4769 127.886C68.4769 143.047 80.7472 155.338 95.8833 155.338C111.019 155.338 123.29 143.047 123.29 127.886C123.29 112.725 111.019 100.435 95.8833 100.435Z" fill="#F9D423"></path>
</g>
<defs>
<clipPath id="clip0_1529_1793">
<rect width="235" height="342" fill="white"></rect>
</clipPath>
</defs>
</svg></svg></g></g></svg></g></svg>